<?xml version="1.0" encoding="iso-8859-1"?>
<!-- Generator: Adobe Illustrator 19.0.0, SVG Export Plug-In . SVG Version: 6.00 Build 0)  -->
<svg version="1.1" id="Layer_1" xmlns="http://www.w3.org/2000/svg" xmlns:xlink="http://www.w3.org/1999/xlink" x="0px" y="0px"
	 viewBox="0 0 512 512" style="enable-background:new 0 0 512 512;" xml:space="preserve">
<g>
	<g>
		<circle cx="395.636" cy="453.818" r="11.636"/>
	</g>
</g>
<g>
	<g>
		<path d="M232.727,23.273V11.636C232.727,4.655,228.073,0,221.091,0c-6.982,0-11.636,4.655-11.636,11.636v46.545
			c0,6.982,4.655,11.636,11.636,11.636c6.982,0,11.636-4.655,11.636-11.636V46.545c6.982,0,11.636,4.655,11.636,11.636v46.545
			c0,29.091-16.291,57.018-41.891,70.982c-5.818,3.491-8.145,10.473-4.655,16.291c2.327,3.491,5.818,5.818,10.473,5.818
			c2.327,0,3.491,0,5.818-1.164c32.582-18.618,53.527-53.527,53.527-91.927V58.182C267.636,38.4,252.509,23.273,232.727,23.273z"/>
	</g>
</g>
<g>
	<g>
		<path d="M445.673,424.727c-3.491-5.818-10.473-6.982-16.291-4.655c-5.818,3.491-6.982,10.473-4.655,16.291
			c3.491,5.818,4.655,11.636,4.655,17.455c0,19.782-15.127,34.909-34.909,34.909c-19.782,0-34.909-15.127-34.909-34.909
			c0-19.782,15.127-34.909,34.909-34.909c6.982,0,11.636-4.655,11.636-11.636v-81.455c0-38.4-31.418-69.818-69.818-69.818
			s-69.818,31.418-69.818,69.818v46.545c0,25.6-20.945,46.545-46.545,46.545c-25.6,0-46.545-20.945-46.545-46.545v-153.6
			c0-16.291-11.636-31.418-27.927-33.745c-36.073-8.145-64-41.891-64-80.291V58.182c0-6.982,4.655-11.636,11.636-11.636v11.636
			c0,6.982,4.655,11.636,11.636,11.636s11.636-4.655,11.636-11.636V11.636C116.364,4.655,111.709,0,104.727,0
			S93.091,4.655,93.091,11.636v11.636c-19.782,0-34.909,15.127-34.909,34.909v46.545c0,50.036,34.909,93.091,83.782,102.4
			c4.655,1.164,9.309,5.818,9.309,11.636v153.6c0,38.4,31.418,69.818,69.818,69.818c38.4,0,69.818-31.418,69.818-69.818v-46.545
			c0-25.6,20.945-46.545,46.545-46.545c25.6,0,46.545,20.945,46.545,46.545V396.8c-26.764,5.818-46.545,29.091-46.545,57.018
			c0,32.582,25.6,58.182,58.182,58.182c32.582,0,58.182-25.6,58.182-58.182C453.818,443.345,451.491,434.036,445.673,424.727z"/>
	</g>
</g>
<g>
</g>
<g>
</g>
<g>
</g>
<g>
</g>
<g>
</g>
<g>
</g>
<g>
</g>
<g>
</g>
<g>
</g>
<g>
</g>
<g>
</g>
<g>
</g>
<g>
</g>
<g>
</g>
<g>
</g>
</svg>
